<?xml version="1.0" encoding="UTF-8" standalone="no"?>
<!-- Created with Inkscape (http://www.inkscape.org/) -->

<svg
   width="107.74226mm"
   height="73.92057mm"
   viewBox="0 0 107.74226 73.92057"
   version="1.1"
   id="svg1"
   inkscape:version="1.3.2 (091e20e, 2023-11-25, custom)"
   sodipodi:docname="handy-latex-1.svg"
   xmlns:inkscape="http://www.inkscape.org/namespaces/inkscape"
   xmlns:sodipodi="http://sodipodi.sourceforge.net/DTD/sodipodi-0.dtd"
   xmlns="http://www.w3.org/2000/svg"
   xmlns:svg="http://www.w3.org/2000/svg">
  <sodipodi:namedview
     id="namedview1"
     pagecolor="#505050"
     bordercolor="#ffffff"
     borderopacity="1"
     inkscape:showpageshadow="0"
     inkscape:pageopacity="0"
     inkscape:pagecheckerboard="1"
     inkscape:deskcolor="#d1d1d1"
     inkscape:document-units="mm"
     inkscape:zoom="1.5981902"
     inkscape:cx="35.039634"
     inkscape:cy="343.51356"
     inkscape:window-width="3840"
     inkscape:window-height="2066"
     inkscape:window-x="-11"
     inkscape:window-y="-11"
     inkscape:window-maximized="1"
     inkscape:current-layer="layer1" />
  <defs
     id="defs1">
    <filter
       inkscape:collect="always"
       style="color-interpolation-filters:sRGB"
       id="filter1"
       x="-0.010107268"
       y="-0.061301294"
       width="1.0201727"
       height="1.1226026">
      <feGaussianBlur
         inkscape:collect="always"
         stdDeviation="0.21500202"
         id="feGaussianBlur1" />
    </filter>
  </defs>
  <g
     inkscape:label="Layer 1"
     inkscape:groupmode="layer"
     id="layer1"
     transform="translate(-39.450969,-2.0377751)">
    <path
       sodipodi:type="star"
       style="fill:#ffffff;fill-opacity:1;stroke:#000cff;stroke-width:2.33318;stroke-linecap:round;stroke-dasharray:none;stroke-opacity:1"
       id="path1"
       inkscape:flatsided="false"
       sodipodi:sides="16"
       sodipodi:cx="61.916386"
       sodipodi:cy="98.006683"
       sodipodi:r1="53.153484"
       sodipodi:r2="42.295612"
       sodipodi:arg1="0.34637612"
       sodipodi:arg2="0.54272566"
       inkscape:rounded="-3.469447e-18"
       inkscape:randomized="0.064"
       d="m 114.86065,119.15976 -14.51144,2.92841 1.93822,12.70742 -17.442692,-1.70469 -3.640667,12.71665 -7.090179,-4.24157 -10.351195,11.6425 -5.191969,-13.66336 -17.040741,9.80487 -2.755016,-15.22103 -12.084636,0.64899 -0.0022,-14.30381 -12.731726,0.74373 5.996622,-10.06479 L 10.77456,100.75102 23.29459,88.884262 12.066769,77.844777 22.500028,76.827509 20.561703,63.366752 l 17.809579,-1.205305 3.16185,-11.653759 7.195214,6.254259 10.358197,-11.054747 8.25483,9.780614 11.500155,-7.881142 5.232632,16.426712 15.514386,-7.44174 -5.786389,14.76876 19.168813,4.426266 -6.64517,11.23349 5.74877,10.391163 -9.09017,5.827347 z"
       inkscape:transform-center-x="-0.65625526"
       inkscape:transform-center-y="-0.079614913"
       transform="matrix(1,0,0,0.66314648,30.295986,-27.109123)" />
    <path
       d="m 66.570078,43.226221 q 0,0.06201 -0.04341,0.111621 -0.03721,0.04961 -0.130225,0.08061 -0.09302,0.03101 -0.248047,0.04961 -0.155029,0.0186 -0.390673,0.0186 -0.241846,0 -0.403076,-0.0186 -0.15503,-0.0186 -0.248047,-0.04961 -0.08682,-0.03101 -0.130225,-0.08061 -0.03721,-0.04961 -0.03721,-0.111621 v -3.243213 h -3.001367 v 3.243213 q 0,0.06201 -0.03721,0.111621 -0.03721,0.04961 -0.130225,0.08061 -0.09302,0.03101 -0.248047,0.04961 -0.155029,0.0186 -0.396875,0.0186 -0.235644,0 -0.396875,-0.0186 -0.155029,-0.0186 -0.248047,-0.04961 -0.09302,-0.03101 -0.136425,-0.08061 -0.03721,-0.04961 -0.03721,-0.111621 v -7.577832 q 0,-0.06201 0.03721,-0.111621 0.04341,-0.04961 0.136425,-0.08062 0.09302,-0.03101 0.248047,-0.04961 0.161231,-0.0186 0.396875,-0.0186 0.241846,0 0.396875,0.0186 0.15503,0.0186 0.248047,0.04961 0.09302,0.03101 0.130225,0.08062 0.03721,0.04961 0.03721,0.111621 v 2.945556 h 3.001367 v -2.945556 q 0,-0.06201 0.03721,-0.111621 0.04341,-0.04961 0.130225,-0.08062 0.09302,-0.03101 0.248047,-0.04961 0.16123,-0.0186 0.403076,-0.0186 0.235644,0 0.390673,0.0186 0.15503,0.0186 0.248047,0.04961 0.09302,0.03101 0.130225,0.08062 0.04341,0.04961 0.04341,0.111621 z m 6.368604,0.03101 q 0,0.08682 -0.06201,0.136425 -0.06201,0.04961 -0.198437,0.06821 -0.130225,0.0248 -0.390674,0.0248 -0.279053,0 -0.409277,-0.0248 -0.124024,-0.0186 -0.179834,-0.06821 -0.04961,-0.04961 -0.04961,-0.136425 v -0.440284 q -0.341064,0.36587 -0.781347,0.570508 -0.434082,0.204639 -0.967383,0.204639 -0.440283,0 -0.812354,-0.117822 -0.365869,-0.111622 -0.63872,-0.334864 -0.266651,-0.229443 -0.415479,-0.564306 -0.148828,-0.334864 -0.148828,-0.781348 0,-0.483691 0.186035,-0.837158 0.192236,-0.359668 0.564307,-0.589111 0.378271,-0.235645 0.936377,-0.347266 0.558105,-0.111621 1.296045,-0.111621 h 0.539501 v -0.334863 q 0,-0.26045 -0.05581,-0.452686 -0.04961,-0.198438 -0.173633,-0.328662 -0.117822,-0.130225 -0.322461,-0.192236 -0.198437,-0.06201 -0.496094,-0.06201 -0.390673,0 -0.700732,0.08682 -0.303857,0.08682 -0.539502,0.192237 -0.235644,0.105419 -0.396875,0.192236 -0.155029,0.08682 -0.254248,0.08682 -0.06821,0 -0.124023,-0.04341 -0.04961,-0.04341 -0.08682,-0.124023 -0.03101,-0.08062 -0.04961,-0.198438 -0.0186,-0.117822 -0.0186,-0.260449 0,-0.192236 0.03101,-0.303857 0.03101,-0.111622 0.117822,-0.198438 0.08682,-0.09302 0.303858,-0.198437 0.217041,-0.111622 0.508496,-0.204639 0.291455,-0.09302 0.632519,-0.148828 0.347266,-0.06201 0.713135,-0.06201 0.651123,0 1.11001,0.130225 0.465088,0.124023 0.762744,0.390673 0.297656,0.26045 0.434082,0.675928 0.136426,0.415479 0.136426,0.985986 z m -1.53169,-2.368848 H 70.81168 q -0.378271,0 -0.644922,0.05581 -0.26665,0.05581 -0.434082,0.167432 -0.167432,0.111621 -0.248047,0.272852 -0.07441,0.155029 -0.07441,0.359668 0,0.347265 0.217041,0.545703 0.223242,0.198437 0.613916,0.198437 0.328662,0 0.601514,-0.167431 0.279053,-0.167432 0.564306,-0.489893 z m 8.371583,2.350244 q 0,0.06201 -0.03721,0.111621 -0.03721,0.04341 -0.124023,0.07441 -0.08682,0.03101 -0.241846,0.04341 -0.148828,0.0186 -0.37207,0.0186 -0.229444,0 -0.384473,-0.0186 -0.148828,-0.0124 -0.235645,-0.04341 -0.08682,-0.03101 -0.124023,-0.07441 -0.03721,-0.04961 -0.03721,-0.111621 v -3.156396 q 0,-0.403077 -0.06201,-0.63252 -0.05581,-0.229443 -0.167431,-0.390674 -0.111622,-0.167431 -0.291456,-0.254248 -0.173632,-0.09302 -0.409277,-0.09302 -0.297656,0 -0.601514,0.217041 -0.303857,0.217041 -0.632519,0.632519 v 3.677295 q 0,0.06201 -0.03721,0.111621 -0.03721,0.04341 -0.130225,0.07441 -0.08682,0.03101 -0.235644,0.04341 -0.148828,0.0186 -0.378272,0.0186 -0.229443,0 -0.378271,-0.0186 -0.148828,-0.0124 -0.241846,-0.04341 -0.08682,-0.03101 -0.124023,-0.07441 -0.03721,-0.04961 -0.03721,-0.111621 v -5.531445 q 0,-0.06201 0.03101,-0.10542 0.031,-0.04961 0.111621,-0.08061 0.08061,-0.03101 0.204638,-0.04341 0.130225,-0.0186 0.322461,-0.0186 0.198438,0 0.328662,0.0186 0.130225,0.0124 0.198438,0.04341 0.07441,0.03101 0.10542,0.08061 0.03101,0.04341 0.03101,0.10542 v 0.638721 q 0.458886,-0.496094 0.930175,-0.744141 0.477491,-0.248047 0.992188,-0.248047 0.564307,0 0.948779,0.186035 0.390674,0.186035 0.626319,0.508496 0.241845,0.31626 0.347265,0.744141 0.10542,0.427881 0.10542,1.029394 z m 6.777879,0 q 0,0.06821 -0.03101,0.117822 -0.03101,0.04341 -0.10542,0.07441 -0.07441,0.03101 -0.204639,0.04341 -0.124024,0.0124 -0.310059,0.0124 -0.198437,0 -0.322461,-0.0124 -0.124023,-0.0124 -0.204638,-0.04341 -0.07441,-0.03101 -0.111621,-0.07441 -0.03101,-0.04961 -0.03101,-0.117822 v -0.613916 q -0.427881,0.458887 -0.89917,0.713135 -0.465088,0.254248 -1.035596,0.254248 -0.632519,0 -1.072803,-0.241846 -0.434082,-0.248047 -0.713134,-0.663525 -0.272852,-0.415479 -0.396875,-0.967383 -0.124024,-0.558105 -0.124024,-1.172022 0,-0.737939 0.15503,-1.32705 0.16123,-0.589112 0.465087,-1.00459 0.303858,-0.415479 0.756543,-0.638721 0.452686,-0.223242 1.041797,-0.223242 0.465088,0 0.84336,0.192236 0.378271,0.186036 0.750341,0.551905 v -2.995166 q 0,-0.06201 0.03101,-0.111621 0.03721,-0.04961 0.124024,-0.08062 0.09302,-0.03721 0.241845,-0.05581 0.148829,-0.0186 0.378272,-0.0186 0.229443,0 0.378271,0.0186 0.148829,0.0186 0.235645,0.05581 0.08682,0.03101 0.124023,0.08062 0.03721,0.04961 0.03721,0.111621 z m -1.550293,-3.695898 q -0.334863,-0.42168 -0.644921,-0.644922 -0.303858,-0.223242 -0.638721,-0.223242 -0.303858,0 -0.5271,0.155029 -0.217041,0.148828 -0.353467,0.403076 -0.130224,0.254248 -0.198437,0.570508 -0.06201,0.310058 -0.06201,0.638721 0,0.347265 0.05581,0.675927 0.05581,0.328662 0.179834,0.589112 0.130224,0.254248 0.341064,0.409277 0.21084,0.155029 0.533301,0.155029 0.16123,0 0.310059,-0.04341 0.155029,-0.04961 0.310058,-0.155029 0.161231,-0.10542 0.328662,-0.272852 0.167432,-0.173633 0.365869,-0.421679 z m 6.325196,3.906738 -0.669726,1.95957 q -0.05581,0.155029 -0.303858,0.223242 -0.248047,0.06821 -0.725537,0.06821 -0.248047,0 -0.396875,-0.0248 -0.148828,-0.0186 -0.223242,-0.06821 -0.07441,-0.04961 -0.08061,-0.124024 -0.0062,-0.07441 0.03721,-0.179834 l 0.737939,-1.85415 q -0.08061,-0.03721 -0.148828,-0.111621 -0.06201,-0.08062 -0.09302,-0.167432 l -1.903759,-5.084961 q -0.08062,-0.217041 -0.08062,-0.328662 0,-0.117822 0.07442,-0.179834 0.07441,-0.06821 0.248046,-0.09302 0.179834,-0.02481 0.471289,-0.02481 0.266651,0 0.42168,0.0124 0.155029,0.0062 0.241846,0.04341 0.08682,0.03721 0.130224,0.117823 0.04341,0.07441 0.08682,0.217041 l 1.302246,3.702099 h 0.0186 l 1.190625,-3.776513 q 0.03721,-0.161231 0.09302,-0.21084 0.06201,-0.05581 0.198437,-0.08062 0.136426,-0.02481 0.477491,-0.02481 0.26665,0 0.440283,0.02481 0.179834,0.0248 0.260449,0.09302 0.08682,0.06821 0.08682,0.186035 0,0.111621 -0.04961,0.266651 z m 10.182323,-0.682129 q 0,0.186035 -0.0186,0.31626 -0.0124,0.124023 -0.0434,0.21084 -0.031,0.08061 -0.0806,0.117822 -0.0434,0.03721 -0.10542,0.03721 h -3.677292 q -0.204638,0 -0.347265,-0.117822 -0.136426,-0.124024 -0.136426,-0.396875 v -7.286377 q 0,-0.06201 0.03721,-0.111621 0.04341,-0.04961 0.136426,-0.08062 0.09302,-0.03101 0.248047,-0.04961 0.16123,-0.0186 0.396875,-0.0186 0.241845,0 0.396875,0.0186 0.155029,0.0186 0.248047,0.04961 0.09302,0.03101 0.130224,0.08062 0.04341,0.04961 0.04341,0.111621 v 6.45542 h 2.523874 q 0.062,0 0.10542,0.03721 0.0496,0.03101 0.0806,0.111621 0.031,0.07441 0.0434,0.204638 0.0186,0.124024 0.0186,0.310059 z m 5.58106,0.489893 q 0,0.08682 -0.062,0.136425 -0.062,0.04961 -0.19843,0.06821 -0.13023,0.0248 -0.39068,0.0248 -0.27905,0 -0.40927,-0.0248 -0.12403,-0.0186 -0.17984,-0.06821 -0.0496,-0.04961 -0.0496,-0.136425 v -0.440284 q -0.34106,0.36587 -0.78134,0.570508 -0.43409,0.204639 -0.96739,0.204639 -0.44028,0 -0.81235,-0.117822 -0.36587,-0.111622 -0.63872,-0.334864 -0.26665,-0.229443 -0.41548,-0.564306 -0.14883,-0.334864 -0.14883,-0.781348 0,-0.483691 0.18604,-0.837158 0.19223,-0.359668 0.5643,-0.589111 0.37827,-0.235645 0.93638,-0.347266 0.55811,-0.111621 1.29605,-0.111621 h 0.5395 v -0.334863 q 0,-0.26045 -0.0558,-0.452686 -0.0496,-0.198438 -0.17364,-0.328662 -0.11782,-0.130225 -0.32246,-0.192236 -0.19843,-0.06201 -0.49609,-0.06201 -0.39067,0 -0.70073,0.08682 -0.30386,0.08682 -0.53951,0.192237 -0.23564,0.105419 -0.39687,0.192236 -0.15503,0.08682 -0.25425,0.08682 -0.0682,0 -0.12402,-0.04341 -0.0496,-0.04341 -0.0868,-0.124023 -0.031,-0.08062 -0.0496,-0.198438 -0.0186,-0.117822 -0.0186,-0.260449 0,-0.192236 0.031,-0.303857 0.031,-0.111622 0.11783,-0.198438 0.0868,-0.09302 0.30385,-0.198437 0.21705,-0.111622 0.5085,-0.204639 0.29146,-0.09302 0.63252,-0.148828 0.34727,-0.06201 0.71313,-0.06201 0.65113,0 1.11001,0.130225 0.46509,0.124023 0.76275,0.390673 0.29765,0.26045 0.43408,0.675928 0.13643,0.415479 0.13643,0.985986 z m -1.53169,-2.368848 h -0.59532 q -0.37827,0 -0.64492,0.05581 -0.26665,0.05581 -0.43408,0.167432 -0.16743,0.111621 -0.24805,0.272852 -0.0744,0.155029 -0.0744,0.359668 0,0.347265 0.21704,0.545703 0.22324,0.198437 0.61392,0.198437 0.32866,0 0.60151,-0.167431 0.27905,-0.167432 0.56431,-0.489893 z m 8.52041,-4.793506 q 0,0.179834 -0.0186,0.310059 -0.0124,0.124023 -0.0434,0.204638 -0.031,0.07441 -0.0806,0.111622 -0.0434,0.03721 -0.0992,0.03721 h -2.00918 v 6.467822 q 0,0.06201 -0.0434,0.111621 -0.0372,0.04961 -0.13023,0.08061 -0.093,0.03101 -0.25425,0.04961 -0.15503,0.0186 -0.39067,0.0186 -0.23565,0 -0.39688,-0.0186 -0.15503,-0.0186 -0.24804,-0.04961 -0.093,-0.03101 -0.13643,-0.08061 -0.0372,-0.04961 -0.0372,-0.111621 v -6.467822 h -2.00918 q -0.062,0 -0.10542,-0.03721 -0.0434,-0.03721 -0.0744,-0.111622 -0.031,-0.08061 -0.0496,-0.204638 -0.0124,-0.130225 -0.0124,-0.310059 0,-0.186035 0.0124,-0.31626 0.0186,-0.130224 0.0496,-0.204638 0.031,-0.08062 0.0744,-0.111621 0.0434,-0.03721 0.10542,-0.03721 h 5.65547 q 0.0558,0 0.0992,0.03721 0.0496,0.03101 0.0806,0.111621 0.031,0.07441 0.0434,0.204638 0.0186,0.130225 0.0186,0.31626 z m 4.86792,4.216797 q 0,0.285254 -0.13023,0.42168 -0.12402,0.136425 -0.34726,0.136425 h -3.36724 q 0,0.353467 0.0806,0.644922 0.0868,0.285254 0.26665,0.489893 0.18603,0.198437 0.47129,0.303857 0.29145,0.10542 0.69453,0.10542 0.40927,0 0.71933,-0.05581 0.31006,-0.06201 0.5333,-0.130225 0.22945,-0.07441 0.37828,-0.130225 0.14882,-0.06201 0.24184,-0.06201 0.0558,0 0.093,0.0248 0.0372,0.0186 0.062,0.07441 0.0248,0.05581 0.031,0.161231 0.0124,0.09922 0.0124,0.254248 0,0.136426 -0.006,0.235645 -0.006,0.09302 -0.0186,0.16123 -0.0124,0.06821 -0.0372,0.117822 -0.0248,0.04341 -0.0682,0.08682 -0.0372,0.04341 -0.21704,0.117822 -0.17983,0.07441 -0.45888,0.148828 -0.27906,0.06821 -0.63872,0.117822 -0.35967,0.05581 -0.76895,0.05581 -0.73794,0 -1.29604,-0.186035 -0.55191,-0.186035 -0.92398,-0.564307 -0.37207,-0.378271 -0.5581,-0.95498 -0.17984,-0.576709 -0.17984,-1.351856 0,-0.737939 0.19224,-1.327051 0.19223,-0.595312 0.5581,-1.004589 0.36587,-0.415479 0.88677,-0.63252 0.5271,-0.217041 1.18442,-0.217041 0.69454,0 1.18443,0.204639 0.49609,0.204638 0.81235,0.570508 0.31626,0.359667 0.46509,0.855761 0.14883,0.496094 0.14883,1.079004 z m -1.51309,-0.446484 q 0.0186,-0.657325 -0.26665,-1.029395 -0.27905,-0.378271 -0.86816,-0.378271 -0.29766,0 -0.5209,0.111621 -0.21704,0.111621 -0.36587,0.303857 -0.14263,0.186035 -0.22324,0.446484 -0.0744,0.254249 -0.0868,0.545704 z m 8.60723,2.970361 q 0.11162,0.217041 0.14262,0.347266 0.0372,0.130224 -0.0372,0.198437 -0.0744,0.06821 -0.27286,0.08682 -0.19223,0.0186 -0.5395,0.0186 -0.29145,0 -0.45888,-0.0124 -0.16744,-0.0124 -0.26665,-0.03721 -0.093,-0.03101 -0.13643,-0.08062 -0.0434,-0.04961 -0.0744,-0.124023 l -1.50689,-2.895947 -1.50068,2.895947 q -0.0372,0.07441 -0.0806,0.124023 -0.0434,0.04961 -0.14262,0.08062 -0.093,0.0248 -0.26666,0.03721 -0.16743,0.0124 -0.44648,0.0124 -0.32246,0 -0.50229,-0.0186 -0.17364,-0.0186 -0.23565,-0.08682 -0.062,-0.06821 -0.0248,-0.198437 0.0372,-0.130225 0.15503,-0.347266 l 1.92236,-3.503662 -1.78594,-3.292822 q -0.11162,-0.223243 -0.15503,-0.353467 -0.0372,-0.136426 0.031,-0.198438 0.0744,-0.06821 0.26665,-0.08062 0.19223,-0.0186 0.5457,-0.0186 0.29146,0 0.45889,0.0124 0.17363,0.0124 0.27285,0.04341 0.0992,0.02481 0.13643,0.07441 0.0434,0.04961 0.0806,0.124024 l 1.40767,2.654101 1.37046,-2.654101 q 0.0372,-0.07441 0.0744,-0.124024 0.0434,-0.04961 0.13022,-0.07441 0.093,-0.03101 0.24805,-0.04341 0.16123,-0.0124 0.44028,-0.0124 0.31006,0 0.4899,0.0186 0.17983,0.0124 0.24804,0.08062 0.0682,0.06821 0.031,0.198438 -0.031,0.130224 -0.13643,0.353467 l -1.78593,3.274218 z"
       id="text1-4"
       style="font-weight:bold;font-size:12.7px;line-height:1.4;font-family:Calibri;-inkscape-font-specification:'Calibri, Bold';fill:#5e5e5e;stroke:#000000;stroke-width:0.3;stroke-linecap:round;stroke-opacity:0.307359;filter:url(#filter1)"
       aria-label="Handy LaTeX" />
    <path
       d="m 66.005423,42.811918 q 0,0.06201 -0.04341,0.111621 -0.03721,0.04961 -0.130225,0.08062 -0.09302,0.03101 -0.248047,0.04961 -0.155029,0.0186 -0.390674,0.0186 -0.241845,0 -0.403076,-0.0186 -0.155029,-0.0186 -0.248047,-0.04961 -0.08682,-0.03101 -0.130224,-0.08062 -0.03721,-0.04961 -0.03721,-0.111621 v -3.243213 h -3.001367 v 3.243213 q 0,0.06201 -0.03721,0.111621 -0.03721,0.04961 -0.130225,0.08062 -0.09302,0.03101 -0.248047,0.04961 -0.155029,0.0186 -0.396875,0.0186 -0.235644,0 -0.396875,-0.0186 -0.155029,-0.0186 -0.248047,-0.04961 -0.09302,-0.03101 -0.136426,-0.08062 -0.03721,-0.04961 -0.03721,-0.111621 v -7.577832 q 0,-0.06201 0.03721,-0.111621 0.04341,-0.04961 0.136426,-0.08062 0.09302,-0.03101 0.248047,-0.04961 0.161231,-0.0186 0.396875,-0.0186 0.241846,0 0.396875,0.0186 0.155029,0.0186 0.248047,0.04961 0.09302,0.03101 0.130225,0.08062 0.03721,0.04961 0.03721,0.111621 v 2.945557 h 3.001367 v -2.945557 q 0,-0.06201 0.03721,-0.111621 0.04341,-0.04961 0.130224,-0.08062 0.09302,-0.03101 0.248047,-0.04961 0.161231,-0.0186 0.403076,-0.0186 0.235645,0 0.390674,0.0186 0.155029,0.0186 0.248047,0.04961 0.09302,0.03101 0.130225,0.08062 0.04341,0.04961 0.04341,0.111621 z m 6.368604,0.03101 q 0,0.08682 -0.06201,0.136426 -0.06201,0.04961 -0.198438,0.06821 -0.130224,0.02481 -0.390673,0.02481 -0.279053,0 -0.409278,-0.02481 -0.124023,-0.0186 -0.179834,-0.06821 -0.04961,-0.04961 -0.04961,-0.136426 v -0.440283 q -0.341065,0.365869 -0.781348,0.570507 -0.434082,0.204639 -0.967383,0.204639 -0.440283,0 -0.812353,-0.117822 -0.365869,-0.111621 -0.638721,-0.334864 -0.26665,-0.229443 -0.415478,-0.564306 -0.148828,-0.334863 -0.148828,-0.781348 0,-0.483691 0.186035,-0.837158 0.192236,-0.359668 0.564306,-0.589111 0.378272,-0.235645 0.936377,-0.347266 0.558106,-0.111621 1.296045,-0.111621 h 0.539502 v -0.334863 q 0,-0.26045 -0.05581,-0.452686 -0.04961,-0.198437 -0.173633,-0.328662 -0.117822,-0.130225 -0.322461,-0.192236 -0.198438,-0.06201 -0.496094,-0.06201 -0.390674,0 -0.700732,0.08682 -0.303858,0.08682 -0.539502,0.192237 -0.235645,0.10542 -0.396875,0.192236 -0.15503,0.08682 -0.254248,0.08682 -0.06821,0 -0.124024,-0.04341 -0.04961,-0.04341 -0.08682,-0.124023 -0.03101,-0.08061 -0.04961,-0.198438 -0.0186,-0.117822 -0.0186,-0.260449 0,-0.192236 0.03101,-0.303857 0.03101,-0.111621 0.117822,-0.198438 0.08682,-0.09302 0.303858,-0.198437 0.217041,-0.111621 0.508496,-0.204639 0.291455,-0.09302 0.632519,-0.148828 0.347266,-0.06201 0.713135,-0.06201 0.651123,0 1.11001,0.130225 0.465088,0.124023 0.762744,0.390674 0.297656,0.260449 0.434082,0.675927 0.136426,0.415479 0.136426,0.985987 z m -1.53169,-2.368848 h -0.595312 q -0.378272,0 -0.644922,0.05581 -0.266651,0.05581 -0.434082,0.167431 -0.167432,0.111621 -0.248047,0.272852 -0.07441,0.155029 -0.07441,0.359668 0,0.347265 0.217041,0.545703 0.223242,0.198437 0.613916,0.198437 0.328662,0 0.601514,-0.167431 0.279052,-0.167432 0.564306,-0.489893 z m 8.371583,2.350244 q 0,0.06201 -0.03721,0.111621 -0.03721,0.04341 -0.124024,0.07441 -0.08682,0.03101 -0.241845,0.04341 -0.148829,0.0186 -0.372071,0.0186 -0.229443,0 -0.384472,-0.0186 -0.148829,-0.0124 -0.235645,-0.04341 -0.08682,-0.03101 -0.124023,-0.07441 -0.03721,-0.04961 -0.03721,-0.111621 v -3.156396 q 0,-0.403076 -0.06201,-0.63252 -0.05581,-0.229443 -0.167432,-0.390674 -0.111621,-0.167431 -0.291455,-0.254248 -0.173633,-0.09302 -0.409277,-0.09302 -0.297656,0 -0.601514,0.217041 -0.303857,0.217041 -0.632519,0.632519 v 3.677295 q 0,0.06201 -0.03721,0.111621 -0.03721,0.04341 -0.130225,0.07441 -0.08682,0.03101 -0.235644,0.04341 -0.148829,0.0186 -0.378272,0.0186 -0.229443,0 -0.378271,-0.0186 -0.148829,-0.0124 -0.241846,-0.04341 -0.08682,-0.03101 -0.124024,-0.07441 -0.03721,-0.04961 -0.03721,-0.111621 v -5.531445 q 0,-0.06201 0.03101,-0.10542 0.03101,-0.04961 0.111621,-0.08062 0.08062,-0.03101 0.204639,-0.04341 0.130225,-0.0186 0.322461,-0.0186 0.198437,0 0.328662,0.0186 0.130225,0.0124 0.198438,0.04341 0.07441,0.03101 0.105419,0.08062 0.03101,0.04341 0.03101,0.10542 v 0.638721 q 0.458887,-0.496094 0.930176,-0.744141 0.47749,-0.248047 0.992188,-0.248047 0.564306,0 0.948779,0.186035 0.390674,0.186036 0.626318,0.508496 0.241846,0.31626 0.347266,0.744141 0.10542,0.427881 0.10542,1.029395 z m 6.777879,0 q 0,0.06821 -0.03101,0.117822 -0.03101,0.04341 -0.10542,0.07442 -0.07441,0.03101 -0.204638,0.04341 -0.124024,0.0124 -0.310059,0.0124 -0.198437,0 -0.322461,-0.0124 -0.124023,-0.0124 -0.204639,-0.04341 -0.07441,-0.03101 -0.111621,-0.07442 -0.03101,-0.04961 -0.03101,-0.117822 v -0.613916 q -0.42788,0.458887 -0.899169,0.713135 -0.465088,0.254248 -1.035596,0.254248 -0.63252,0 -1.072803,-0.241846 -0.434082,-0.248047 -0.713135,-0.663525 -0.272851,-0.415479 -0.396875,-0.967383 -0.124023,-0.558105 -0.124023,-1.172021 0,-0.73794 0.155029,-1.327051 0.161231,-0.589111 0.465088,-1.00459 0.303858,-0.415478 0.756543,-0.638721 0.452686,-0.223242 1.041797,-0.223242 0.465088,0 0.843359,0.192237 0.378272,0.186035 0.750342,0.551904 v -2.995166 q 0,-0.06201 0.03101,-0.111621 0.03721,-0.04961 0.124023,-0.08062 0.09302,-0.03721 0.241846,-0.05581 0.148828,-0.0186 0.378272,-0.0186 0.229443,0 0.378271,0.0186 0.148828,0.0186 0.235645,0.05581 0.08682,0.03101 0.124023,0.08062 0.03721,0.04961 0.03721,0.111621 z m -1.550293,-3.695898 q -0.334863,-0.42168 -0.644922,-0.644922 -0.303857,-0.223242 -0.63872,-0.223242 -0.303858,0 -0.5271,0.155029 -0.217041,0.148828 -0.353467,0.403076 -0.130224,0.254248 -0.198437,0.570508 -0.06201,0.310059 -0.06201,0.638721 0,0.347265 0.05581,0.675927 0.05581,0.328663 0.179833,0.589112 0.130225,0.254248 0.341065,0.409277 0.21084,0.155029 0.533301,0.155029 0.16123,0 0.310058,-0.04341 0.15503,-0.04961 0.310059,-0.155029 0.16123,-0.10542 0.328662,-0.272852 0.167432,-0.173632 0.365869,-0.421679 z m 6.325196,3.906738 -0.669727,1.95957 q -0.05581,0.15503 -0.303857,0.223243 -0.248047,0.06821 -0.725537,0.06821 -0.248047,0 -0.396875,-0.0248 -0.148828,-0.0186 -0.223242,-0.06821 -0.07441,-0.04961 -0.08062,-0.124024 -0.0062,-0.07441 0.03721,-0.179834 l 0.73794,-1.85415 q -0.08061,-0.03721 -0.148828,-0.111621 -0.06201,-0.08062 -0.09302,-0.167432 l -1.90376,-5.084961 q -0.08061,-0.217041 -0.08061,-0.328662 0,-0.117822 0.07441,-0.179834 0.07441,-0.06821 0.248047,-0.09302 0.179834,-0.02481 0.471289,-0.02481 0.266651,0 0.42168,0.0124 0.155029,0.0062 0.241846,0.04341 0.08682,0.03721 0.130224,0.117822 0.04341,0.07441 0.08682,0.217041 l 1.302246,3.702099 h 0.0186 l 1.190625,-3.776513 q 0.03721,-0.161231 0.09302,-0.21084 0.06201,-0.05581 0.198437,-0.08061 0.136426,-0.02481 0.47749,-0.02481 0.266651,0 0.440284,0.02481 0.179834,0.0248 0.260449,0.09302 0.08682,0.06821 0.08682,0.186036 0,0.111621 -0.04961,0.26665 z m 10.182318,-0.682129 q 0,0.186035 -0.0186,0.31626 -0.0124,0.124023 -0.0434,0.21084 -0.031,0.08062 -0.0806,0.117822 -0.0434,0.03721 -0.10542,0.03721 h -3.677297 q -0.204639,0 -0.347265,-0.117822 -0.136426,-0.124024 -0.136426,-0.396875 v -7.286377 q 0,-0.06201 0.03721,-0.111621 0.04341,-0.04961 0.136426,-0.08062 0.09302,-0.03101 0.248046,-0.04961 0.161231,-0.0186 0.396875,-0.0186 0.241846,0 0.396875,0.0186 0.15503,0.0186 0.248047,0.04961 0.09302,0.03101 0.130225,0.08062 0.04341,0.04961 0.04341,0.111621 v 6.45542 h 2.523879 q 0.062,0 0.10542,0.03721 0.0496,0.03101 0.0806,0.111621 0.031,0.07441 0.0434,0.204639 0.0186,0.124023 0.0186,0.310058 z m 5.58106,0.489893 q 0,0.08682 -0.062,0.136426 -0.062,0.04961 -0.19844,0.06821 -0.13022,0.02481 -0.39067,0.02481 -0.27905,0 -0.40928,-0.02481 -0.12402,-0.0186 -0.17983,-0.06821 -0.0496,-0.04961 -0.0496,-0.136426 v -0.440283 q -0.34107,0.365869 -0.78135,0.570507 -0.43408,0.204639 -0.96738,0.204639 -0.44029,0 -0.81236,-0.117822 -0.36587,-0.111621 -0.63872,-0.334864 -0.26665,-0.229443 -0.41548,-0.564306 -0.14882,-0.334863 -0.14882,-0.781348 0,-0.483691 0.18603,-0.837158 0.19224,-0.359668 0.56431,-0.589111 0.37827,-0.235645 0.93637,-0.347266 0.55811,-0.111621 1.29605,-0.111621 h 0.5395 v -0.334863 q 0,-0.26045 -0.0558,-0.452686 -0.0496,-0.198437 -0.17363,-0.328662 -0.11782,-0.130225 -0.32246,-0.192236 -0.19844,-0.06201 -0.4961,-0.06201 -0.39067,0 -0.70073,0.08682 -0.30386,0.08682 -0.5395,0.192237 -0.23565,0.10542 -0.39688,0.192236 -0.15503,0.08682 -0.25424,0.08682 -0.0682,0 -0.12403,-0.04341 -0.0496,-0.04341 -0.0868,-0.124023 -0.031,-0.08061 -0.0496,-0.198438 -0.0186,-0.117822 -0.0186,-0.260449 0,-0.192236 0.031,-0.303857 0.031,-0.111621 0.11782,-0.198438 0.0868,-0.09302 0.30386,-0.198437 0.21704,-0.111621 0.5085,-0.204639 0.29145,-0.09302 0.63251,-0.148828 0.34727,-0.06201 0.71314,-0.06201 0.65112,0 1.11001,0.130225 0.46509,0.124023 0.76274,0.390674 0.29766,0.260449 0.43409,0.675927 0.13642,0.415479 0.13642,0.985987 z m -1.53169,-2.368848 h -0.59531 q -0.37827,0 -0.64492,0.05581 -0.26665,0.05581 -0.43408,0.167431 -0.16744,0.111621 -0.24805,0.272852 -0.0744,0.155029 -0.0744,0.359668 0,0.347265 0.21705,0.545703 0.22324,0.198437 0.61391,0.198437 0.32866,0 0.60152,-0.167431 0.27905,-0.167432 0.5643,-0.489893 z m 8.52041,-4.793506 q 0,0.179834 -0.0186,0.310059 -0.0124,0.124023 -0.0434,0.204639 -0.031,0.07441 -0.0806,0.111621 -0.0434,0.03721 -0.0992,0.03721 h -2.00918 v 6.467822 q 0,0.06201 -0.0434,0.111621 -0.0372,0.04961 -0.13022,0.08062 -0.093,0.03101 -0.25425,0.04961 -0.15503,0.0186 -0.39068,0.0186 -0.23564,0 -0.39687,-0.0186 -0.15503,-0.0186 -0.24805,-0.04961 -0.093,-0.03101 -0.13642,-0.08062 -0.0372,-0.04961 -0.0372,-0.111621 v -6.467822 h -2.00918 q -0.062,0 -0.10542,-0.03721 -0.0434,-0.03721 -0.0744,-0.111621 -0.031,-0.08062 -0.0496,-0.204639 -0.0124,-0.130225 -0.0124,-0.310059 0,-0.186035 0.0124,-0.316259 0.0186,-0.130225 0.0496,-0.204639 0.031,-0.08062 0.0744,-0.111621 0.0434,-0.03721 0.10542,-0.03721 h 5.65547 q 0.0558,0 0.0992,0.03721 0.0496,0.03101 0.0806,0.111621 0.031,0.07441 0.0434,0.204639 0.0186,0.130224 0.0186,0.316259 z m 4.86792,4.216797 q 0,0.285254 -0.13022,0.42168 -0.12403,0.136426 -0.34727,0.136426 H 114.542 q 0,0.353466 0.0806,0.644921 0.0868,0.285254 0.26665,0.489893 0.18604,0.198438 0.47129,0.303857 0.29146,0.10542 0.69453,0.10542 0.40928,0 0.71934,-0.05581 0.31006,-0.06201 0.5333,-0.130225 0.22944,-0.07441 0.37827,-0.130224 0.14883,-0.06201 0.24185,-0.06201 0.0558,0 0.093,0.02481 0.0372,0.0186 0.062,0.07441 0.0248,0.05581 0.031,0.16123 0.0124,0.09922 0.0124,0.254248 0,0.136426 -0.006,0.235645 -0.006,0.09302 -0.0186,0.16123 -0.0124,0.06821 -0.0372,0.117822 -0.0248,0.04341 -0.0682,0.08682 -0.0372,0.04341 -0.21704,0.117822 -0.17984,0.07441 -0.45889,0.148828 -0.27905,0.06821 -0.63872,0.117822 -0.35967,0.05581 -0.76895,0.05581 -0.73793,0 -1.29604,-0.186035 -0.5519,-0.186035 -0.92397,-0.564307 -0.37207,-0.378271 -0.55811,-0.95498 -0.17983,-0.576709 -0.17983,-1.351856 0,-0.737939 0.19223,-1.32705 0.19224,-0.595313 0.55811,-1.00459 0.36587,-0.415479 0.88677,-0.63252 0.52709,-0.217041 1.18442,-0.217041 0.69453,0 1.18442,0.204639 0.4961,0.204639 0.81236,0.570508 0.31626,0.359668 0.46508,0.855761 0.14883,0.496094 0.14883,1.079004 z m -1.51308,-0.446484 q 0.0186,-0.657324 -0.26665,-1.029395 -0.27906,-0.378271 -0.86817,-0.378271 -0.29765,0 -0.5209,0.111621 -0.21704,0.111621 -0.36587,0.303857 -0.14262,0.186035 -0.22324,0.446485 -0.0744,0.254248 -0.0868,0.545703 z m 8.60722,2.970361 q 0.11162,0.217041 0.14263,0.347266 0.0372,0.130224 -0.0372,0.198437 -0.0744,0.06821 -0.27285,0.08682 -0.19224,0.0186 -0.5395,0.0186 -0.29146,0 -0.45889,-0.0124 -0.16743,-0.0124 -0.26665,-0.03721 -0.093,-0.03101 -0.13643,-0.08062 -0.0434,-0.04961 -0.0744,-0.124023 l -1.50688,-2.895947 -1.50069,2.895947 q -0.0372,0.07441 -0.0806,0.124023 -0.0434,0.04961 -0.14263,0.08062 -0.093,0.0248 -0.26665,0.03721 -0.16743,0.0124 -0.44648,0.0124 -0.32247,0 -0.5023,-0.0186 -0.17363,-0.0186 -0.23564,-0.08682 -0.062,-0.06821 -0.0248,-0.198437 0.0372,-0.130225 0.15503,-0.347266 l 1.92236,-3.503662 -1.78593,-3.292822 q -0.11163,-0.223242 -0.15503,-0.353467 -0.0372,-0.136426 0.031,-0.198438 0.0744,-0.06821 0.26665,-0.08061 0.19224,-0.0186 0.54571,-0.0186 0.29145,0 0.45888,0.0124 0.17364,0.0124 0.27285,0.04341 0.0992,0.02481 0.13643,0.07441 0.0434,0.04961 0.0806,0.124024 l 1.40766,2.654101 1.37046,-2.654101 q 0.0372,-0.07441 0.0744,-0.124024 0.0434,-0.04961 0.13023,-0.07441 0.093,-0.03101 0.24805,-0.04341 0.16123,-0.0124 0.44028,-0.0124 0.31006,0 0.48989,0.0186 0.17984,0.0124 0.24805,0.08061 0.0682,0.06821 0.031,0.198438 -0.031,0.130225 -0.13642,0.353467 l -1.78594,3.274218 z"
       id="text1"
       style="font-weight:bold;font-size:12.7px;line-height:1.4;font-family:Calibri;-inkscape-font-specification:'Calibri, Bold';fill:#077adb;stroke:#000000;stroke-width:0.3;stroke-linecap:round"
       aria-label="Handy LaTeX" />
    <path
       d="m 95.467088,56.215317 q 0,0.173633 -0.0186,0.297656 -0.0186,0.117822 -0.05581,0.192236 -0.03101,0.06821 -0.07441,0.09922 -0.04341,0.03101 -0.09922,0.03101 h -4.427636 q -0.04961,0 -0.09302,-0.03101 -0.04341,-0.03101 -0.08061,-0.09922 -0.03101,-0.07441 -0.04961,-0.192236 -0.0186,-0.124023 -0.0186,-0.297656 0,-0.179834 0.0124,-0.297656 0.0186,-0.124024 0.04961,-0.198438 0.03721,-0.07441 0.08062,-0.10542 0.04341,-0.03721 0.09922,-0.03721 h 1.494482 v -5.221387 l -1.289844,0.713135 q -0.142627,0.06821 -0.235644,0.08682 -0.08682,0.0124 -0.142627,-0.03721 -0.04961,-0.05581 -0.06821,-0.186036 -0.0186,-0.130224 -0.0186,-0.365869 0,-0.148828 0.0062,-0.241845 0.0062,-0.09922 0.03101,-0.167432 0.0248,-0.06821 0.06821,-0.111621 0.04341,-0.04341 0.117823,-0.09302 l 1.723925,-1.116211 q 0.03101,-0.0248 0.07441,-0.03721 0.04961,-0.0186 0.124024,-0.0248 0.07441,-0.0124 0.192236,-0.0124 0.124024,-0.0062 0.31626,-0.0062 0.235645,0 0.378271,0.0124 0.148829,0.0062 0.223243,0.03101 0.07441,0.0186 0.09922,0.05581 0.02481,0.03721 0.02481,0.09302 v 6.629053 h 1.308447 q 0.05581,0 0.09922,0.03721 0.04961,0.03101 0.08062,0.10542 0.03721,0.07441 0.04961,0.198438 0.0186,0.117822 0.0186,0.297656 z"
       id="text2"
       style="font-weight:bold;font-size:12.7px;line-height:1.4;font-family:Calibri;-inkscape-font-specification:'Calibri, Bold';fill:#ffffff;stroke:#000000;stroke-width:0.8;stroke-linecap:round"
       aria-label="1" />
  </g>
</svg>
